<svg width="123" height="47" viewBox="0 0 123 47" fill="none" xmlns="http://www.w3.org/2000/svg">
<path fill-rule="evenodd" clip-rule="evenodd" d="M38.4101 24.992C40.3901 15.224 41.9081 8.69 44.3501 3.872C45.4721 1.628 46.8581 0.242001 49.4981 0.242001C53.2601 0.242001 54.9761 2.42 54.9761 3.74C54.9761 4.4 54.5801 4.73 53.9861 4.73C52.4021 4.73 51.4121 4.928 50.0921 6.512C47.1221 10.142 41.4461 26.312 39.7961 42.086C39.7301 43.472 39.0041 44 38.0801 44H31.5461C30.8201 44 30.3581 43.67 30.2921 42.548C29.7641 34.232 30.3581 25.718 29.4341 18.59H29.1041C26.9261 28.16 22.9661 46.838 9.83212 46.838C3.89212 46.838 0.328125 42.812 0.328125 38.192C0.328125 33.374 5.27813 29.744 7.78613 29.744C8.44613 29.744 8.71012 30.074 8.71012 30.536C8.71012 31.328 8.24813 31.856 8.24813 33.374C8.24813 35.024 9.37012 36.74 12.0761 36.74C18.0161 36.74 25.6721 20.636 25.6721 8.954C25.6721 5.324 24.0881 3.938 21.7121 3.938C18.1481 3.938 14.1881 9.746 14.1881 15.092C14.1881 17.27 15.4421 18.26 16.8281 18.26C17.6861 18.26 18.4781 17.732 18.9401 17.732C19.4021 17.732 19.6001 17.996 19.6001 18.458C19.6001 20.438 16.0361 25.19 11.2181 25.19C7.25813 25.19 4.28813 22.286 4.28813 17.666C4.28813 6.446 15.1781 0.242001 23.2961 0.242001C32.8661 0.242001 35.6381 5.258 37.2221 12.32C37.9481 15.488 38.2781 21.032 38.4101 24.992ZM58.4741 23.144C63.3581 23.144 66.7241 26.312 66.7241 30.866C66.7241 38.258 62.0381 44.594 53.9201 44.594C48.1121 44.594 44.3501 41.228 44.3501 35.948C44.3501 29.546 49.4321 23.144 58.4741 23.144ZM61.8401 34.76C61.8401 33.638 61.4441 32.648 60.5201 32.252C58.4741 31.46 57.8801 30.734 57.8801 29.546C57.8801 27.896 58.8701 27.368 58.8701 26.972C58.8701 26.642 58.6721 26.444 58.2761 26.444C58.0121 26.444 57.3521 26.642 56.4281 27.368C54.7781 28.688 53.1941 31.13 53.1941 34.892C53.1941 37.862 54.9101 39.776 57.4841 39.776C60.1241 39.776 61.8401 37.07 61.8401 34.76ZM81.1121 26.708C79.4621 26.708 78.7361 27.236 78.2741 28.82C77.7461 30.734 76.8881 34.1 76.8881 36.278C76.8881 38.258 77.8781 38.984 79.4621 38.984C81.3761 38.984 83.4221 36.212 84.3461 36.212C84.8741 36.212 85.2041 36.608 85.2041 37.004C85.2041 38.918 79.5281 44.33 74.5121 44.33C69.7601 44.33 67.7141 41.492 67.7141 37.994C67.7141 33.77 69.7601 30.47 69.7601 27.17C69.7601 26.312 67.9781 26.84 67.9781 25.652C67.9781 24.992 68.3741 23.738 69.1001 23.738C72.5981 23.738 75.8321 20.306 77.5481 17.534C78.2081 16.478 78.7361 16.082 79.3301 16.082C80.0561 16.082 80.3861 16.61 80.3861 17.138C80.3861 18.59 79.4621 21.296 79.4621 22.418C79.4621 23.276 79.7261 23.738 81.7061 23.738C82.2341 23.738 82.6301 23.936 82.6301 24.464C82.6301 25.784 81.9041 26.708 81.1121 26.708ZM92.6621 33.242C96.4241 32.516 98.8661 29.216 98.8661 27.632C98.8661 26.642 98.3381 26.114 97.2821 26.114C95.3021 26.114 92.6621 29.348 92.6621 33.242ZM97.6121 40.106C100.978 40.106 103.288 37.928 104.74 36.74C105.268 36.278 105.73 35.948 106.126 35.948C106.654 35.948 106.918 36.344 106.918 36.74C106.918 37.4 106.588 37.928 105.598 38.984C103.42 41.294 100.186 44.528 93.7841 44.528C87.5801 44.528 83.2241 41.756 83.2241 35.42C83.2241 29.018 88.3721 23.276 97.1501 23.276C101.638 23.276 103.684 25.256 103.684 28.094C103.684 31.856 99.2621 35.486 92.6621 36.014C92.6621 38.324 94.4441 40.106 97.6121 40.106ZM106.72 35.354C108.502 35.354 109.558 36.212 109.558 37.796C109.558 39.446 110.152 40.568 111.34 40.568C112.264 40.568 112.792 39.974 112.792 38.786C112.792 34.892 106.258 34.298 106.258 29.348C106.258 25.19 110.416 23.078 115.366 23.078C120.184 23.078 122.362 24.926 122.362 27.632C122.362 29.414 121.438 30.998 119.26 30.998C118.006 30.998 116.884 30.008 116.884 28.754C116.884 27.764 117.412 27.368 117.412 26.774C117.412 26.114 116.884 25.85 116.158 25.85C115.3 25.85 114.244 26.774 114.244 28.028C114.244 31.922 121.504 32.45 121.504 37.268C121.504 41.558 118.072 44.462 112.264 44.462C107.314 44.462 103.684 42.284 103.684 38.72C103.684 36.608 105.202 35.354 106.72 35.354Z" fill="#2EA1F8"/>
</svg>
