<svg width="69" height="50" viewBox="0 0 69 50" fill="none" xmlns="http://www.w3.org/2000/svg">
<path fill-rule="evenodd" clip-rule="evenodd" d="M32.2904 39.8781H3.26543C1.46596 39.8781 0 41.3751 0 43.2126V50H35.5553V43.2126C35.5553 41.3751 34.0899 39.8781 32.2904 39.8781ZM33.3787 47.7768H2.17713V43.2126C2.17713 42.5977 2.6633 42.1013 3.26543 42.1013H32.2904C32.8856 42.1013 33.3787 42.5977 33.3787 43.2126V47.7768ZM11.6824 39.8781V42.1007H23.8654V39.8781H11.6824ZM22.1245 18.5312L22.9878 17.8718L23.6261 17.0049C23.2128 17.5681 22.7048 18.0869 22.1245 18.5312ZM16.7112 22.1546C16.7473 22.1622 16.7835 22.1622 16.8202 22.1693C16.8713 22.1693 16.9218 22.1769 16.9798 22.1769C16.8926 22.1769 16.7979 22.1693 16.7112 22.1546ZM56.8596 22.3621L50.4452 17.22C51.4899 15.9604 52.1213 14.3379 52.1213 12.5596C52.1213 10.7813 51.4899 9.15125 50.4452 7.89925L56.8596 2.75711L66.8441 9.83347L68.0851 8.00952L56.7872 0L48.7691 6.41641C47.6878 5.72714 46.4106 5.33443 45.0468 5.33443C43.7553 5.33443 42.5144 5.6902 41.4404 6.342H25.0266C23.2128 4.14164 20.6005 2.8967 17.7777 2.8967C12.5606 2.8967 8.30851 7.23116 8.30851 12.5585C8.30851 15.3966 9.55638 18.1303 11.6824 19.9608V39.8776H13.8596V21.3692C13.9319 21.4061 14.0122 21.436 14.092 21.4654C14.3245 21.5691 14.5564 21.6582 14.7957 21.7397C15.1149 21.8434 15.4415 21.9325 15.7681 22.0063C15.9351 22.0433 16.1021 22.0732 16.2761 22.0954C16.3995 22.1177 16.5229 22.1324 16.6532 22.1476C16.6676 22.1552 16.6894 22.1552 16.7112 22.1552C16.7984 22.1698 16.8926 22.1774 16.9798 22.1774C16.9218 22.1774 16.8707 22.1698 16.8202 22.1698C17.1394 22.2068 17.4585 22.229 17.7782 22.229C17.9596 22.229 18.1335 22.2068 18.3149 22.1992C18.4457 22.1916 18.5761 22.1845 18.7069 22.1693C18.7723 22.1617 18.8303 22.1546 18.8957 22.147C18.9468 22.147 18.9973 22.1394 19.041 22.1324C19.2878 22.0954 19.5197 22.0655 19.7596 22.0139C19.9702 21.9618 20.1803 21.9102 20.391 21.851C20.5069 21.8211 20.6303 21.7771 20.7537 21.7397C20.9931 21.6582 21.2324 21.5691 21.4574 21.4654C21.5372 21.4355 21.6101 21.4061 21.6899 21.3692V39.8781H23.867V19.9461C24.2878 19.5903 24.6723 19.1976 25.0207 18.7827H41.4707C42.5372 19.4274 43.7782 19.7832 45.0479 19.7832C46.4122 19.7832 47.6894 19.3829 48.7702 18.6941L56.7883 25.1181L68.0851 17.1086L66.8441 15.2858L56.8596 22.3621ZM23.6261 17.0049L22.9878 17.8718L22.1245 18.5312C20.8617 19.4942 19.3601 20.0059 17.7782 20.0059C16.1888 20.0059 14.6872 19.4947 13.4245 18.5312C11.5596 17.1086 10.4856 14.93 10.4856 12.5591C10.4856 8.45437 13.758 5.11988 17.7782 5.11988C20.1 5.11988 22.2261 6.20892 23.6266 8.11326C24.5628 9.40273 25.0633 10.9437 25.0633 12.5591C25.0628 14.1744 24.5622 15.7154 23.6261 17.0049ZM37.9936 13.1147C38.0011 13.2261 38.0154 13.3222 38.0298 13.426C38.0372 13.5221 38.0442 13.6188 38.066 13.7073C38.1096 13.9963 38.1676 14.2852 38.2473 14.5595C38.291 14.7225 38.3415 14.8854 38.4 15.0413C38.5378 15.4264 38.7048 15.7898 38.908 16.1456C38.9516 16.2347 39.0021 16.3161 39.0601 16.3976C39.0676 16.4199 39.0745 16.4346 39.0894 16.4498C39.1037 16.4943 39.133 16.5236 39.1548 16.5611H26.3984C26.616 16.0723 26.7904 15.5682 26.9207 15.0495C26.9644 14.9088 26.9931 14.7605 27.0223 14.6198C27.0878 14.3233 27.1383 14.0272 27.1745 13.7231C27.2181 13.345 27.2399 12.9523 27.2399 12.5596C27.2399 12.1669 27.2181 11.7742 27.1745 11.3962C27.1383 11.0925 27.0872 10.796 27.0223 10.4994C26.9931 10.3587 26.9644 10.2104 26.9207 10.0697C26.8266 9.6917 26.7101 9.32126 26.5654 8.95843C26.5144 8.82481 26.4564 8.69879 26.3984 8.56572H39.1622C39.1479 8.58038 39.133 8.60265 39.1261 8.62492C39.0537 8.72867 38.9883 8.83241 38.9303 8.94376C38.7564 9.24739 38.6037 9.55862 38.4878 9.87746C38.4516 9.95133 38.4223 10.0257 38.4005 10.0996C38.3426 10.2479 38.2915 10.4032 38.2553 10.5591C38.241 10.6113 38.2192 10.6705 38.2117 10.7221C38.1606 10.8997 38.1176 11.0849 38.0883 11.2631C38.0521 11.4407 38.0303 11.6112 38.016 11.7894C38.0085 11.797 38.0085 11.797 38.016 11.8041C38.0016 11.8633 38.0016 11.9225 38.0016 11.9893C37.9941 12.0262 37.9872 12.0632 37.9941 12.1006C37.9798 12.2565 37.9723 12.4043 37.9723 12.5602C37.9718 12.7443 37.9793 12.9295 37.9936 13.1147ZM45.0468 17.5605C43.6319 17.5605 42.2824 16.931 41.3463 15.8268C40.5771 14.93 40.1489 13.7741 40.1489 12.5591C40.1489 12.4331 40.1564 12.307 40.1707 12.181C40.1707 12.0919 40.1782 11.9958 40.2 11.9067C40.2074 11.803 40.2218 11.7068 40.2436 11.6031C40.2872 11.3587 40.3527 11.1142 40.4394 10.8769C40.4612 10.8101 40.483 10.7509 40.5117 10.6841C40.584 10.4988 40.6644 10.3212 40.766 10.1431C40.8096 10.0616 40.8532 9.98012 40.9037 9.90571C40.9617 9.80957 41.0197 9.72049 41.0851 9.63141C41.1649 9.513 41.259 9.39404 41.3537 9.28324L41.3612 9.27563C42.2824 8.17898 43.625 7.55652 45.0473 7.55652C47.7468 7.55652 49.9452 9.79436 49.9452 12.558C49.9447 15.3156 47.7457 17.5605 45.0468 17.5605ZM17.7766 18.4095C16.5303 18.4095 15.3468 18.0103 14.3527 17.2542C12.908 16.1505 12.0452 14.395 12.0452 12.558C12.0452 9.33375 14.616 6.71026 17.7766 6.71026C19.5989 6.71026 21.2729 7.56847 22.3707 9.06543C23.1117 10.0822 23.5032 11.2891 23.5032 12.558C23.5032 13.8295 23.1122 15.0386 22.3723 16.0538C22.0473 16.4997 21.6521 16.9022 21.1995 17.2515C20.2016 18.0103 19.0197 18.4095 17.7766 18.4095ZM17.7766 8.19148C15.417 8.19148 13.4968 10.1501 13.4968 12.5574C13.4968 13.9501 14.1255 15.2293 15.2207 16.0663C16.6995 17.1906 18.8441 17.1944 20.3282 16.0657C20.6676 15.8039 20.9644 15.5014 21.2074 15.1684C21.7596 14.4107 22.0516 13.508 22.0516 12.5574C22.0516 11.6102 21.7596 10.7085 21.2074 9.95079C20.3878 8.8335 19.1372 8.19148 17.7766 8.19148ZM45.0468 16.4308C43.9484 16.4308 42.9053 15.9446 42.1846 15.0967C41.5846 14.4009 41.2521 13.4971 41.2521 12.5558C41.2521 11.621 41.5835 10.7199 42.1862 10.0165C42.8979 9.16972 43.942 8.68087 45.0468 8.68087C47.1394 8.68087 48.8415 10.419 48.8415 12.5558C48.8415 14.6926 47.1394 16.4308 45.0468 16.4308ZM45.0468 10.1632C44.366 10.1632 43.7229 10.4635 43.283 10.9871C42.9074 11.4255 42.7032 11.9806 42.7032 12.5558C42.7032 13.1365 42.9064 13.6921 43.2766 14.1212C43.725 14.6486 44.3691 14.949 45.0468 14.949C46.3388 14.949 47.3904 13.8757 47.3904 12.5558C47.3904 11.2365 46.3388 10.1632 45.0468 10.1632Z" fill="#2EA1F8"/>
</svg>
