<svg width="52" height="50" viewBox="0 0 52 50" fill="none" xmlns="http://www.w3.org/2000/svg">
<path fill-rule="evenodd" clip-rule="evenodd" d="M39.4939 49.8726H12.174V47.1593H17.4666L18.1968 41.4101H3.64613C1.63557 41.4101 0 39.7762 0 37.7674V3.77018C0 1.76131 1.63557 0.127441 3.64613 0.127441H48.0205C50.0311 0.127441 51.6667 1.76131 51.6667 3.77018V37.7678C51.6667 39.7766 50.0311 41.4105 48.0205 41.4105H33.4437L34.1739 47.1597H39.4939V49.8726ZM20.2045 47.1597H31.4359L30.7066 41.4105H20.9343L20.2045 47.1597ZM31.9026 38.6972H48.0205C48.5332 38.6972 48.9505 38.2803 48.9505 37.7678V31.1698H2.71613V37.7674C2.71613 38.2803 3.1335 38.6968 3.64613 38.6968H31.9026V38.6972ZM2.71613 28.4569H48.9505V3.77018C48.9505 3.25728 48.5332 2.84075 48.0205 2.84075H3.64613C3.1335 2.84075 2.71613 3.25768 2.71613 3.77018V28.4569ZM25.8345 37.325C27.2223 37.325 28.3513 36.1964 28.3513 34.8097C28.3513 33.4234 27.2223 32.2944 25.8345 32.2944C24.4464 32.2944 23.3166 33.423 23.3166 34.8097C23.3162 36.196 24.4464 37.325 25.8345 37.325Z" fill="#2EA1F8"/>
</svg>
