<svg width="50" height="50" viewBox="0 0 50 50" fill="none" xmlns="http://www.w3.org/2000/svg">
<path fill-rule="evenodd" clip-rule="evenodd" d="M12.1969 49.6122C11.1372 49.6122 10.1399 49.1991 9.38992 48.4483C8.98411 48.0425 8.67752 47.5642 8.48178 47.046C6.84923 47.6522 4.95775 47.2894 3.64341 45.9754C2.32403 44.6568 1.96124 42.7615 2.56822 41.1297C2.04729 40.9336 1.56783 40.6266 1.16124 40.22C0.412791 39.4712 0 38.4746 0 37.413C0 36.3514 0.412791 35.3549 1.16163 34.6056L2.66279 36.1068C2.31473 36.4553 2.12287 36.9188 2.12287 37.413C2.12287 37.9072 2.31473 38.3708 2.66279 38.7192C3.06395 39.1208 3.62093 39.3169 4.18837 39.2467L7.0845 38.9095L5.08333 41.0301C4.1624 42.0068 4.18915 43.5196 5.14419 44.4746C6.0938 45.4235 7.60388 45.4498 8.58256 44.5336L10.6992 42.5487L10.3628 45.4308C10.2973 45.994 10.4895 46.5471 10.8903 46.9479C11.2395 47.2967 11.7035 47.4898 12.1961 47.4898C12.1969 47.4898 12.1973 47.4898 12.1977 47.4898C12.6907 47.489 13.1543 47.2971 13.5027 46.9479L15.0047 48.4491C14.255 49.1991 13.2589 49.6122 12.1992 49.613C12.1992 49.6122 12.1981 49.6122 12.1969 49.6122ZM28.0721 49.1332L20.3539 37.5235C20.2736 37.5289 20.1942 37.5332 20.1147 37.5374L19.6988 37.558L16.4252 40.832L8.78256 33.1894L12.0512 29.9215L12.0729 29.4944C12.0771 29.4157 12.0814 29.3367 12.0872 29.2568L0.480233 21.5417L17.9717 15.7161C19.4004 13.7673 21.0531 11.839 22.8922 9.99983C28.4519 4.44014 34.7058 2.00875 37.9388 1.05526C41.6508 -0.040089 46.6337 -0.671872 48.4585 1.15255C50.2841 2.97774 49.6535 7.96107 48.5585 11.6739C47.605 14.9084 45.1752 21.163 39.6159 26.7227C37.7767 28.5618 35.8481 30.2149 33.8992 31.6436L28.0721 49.1332ZM22.6729 37.1766L27.4322 44.3355L31.0136 33.5847C28.1279 35.356 25.2729 36.5948 22.6729 37.1766ZM11.7853 33.1894L16.4248 37.8297L18.1686 36.0851L13.5291 31.4456L11.7853 33.1894ZM14.2264 29.1409L20.4698 35.3839C25.4922 34.9223 32.3516 30.9839 38.1143 25.2215C41.9601 21.3754 44.2128 17.1762 45.4915 14.0142L35.5996 4.1227C32.4384 5.40216 28.2395 7.65565 24.3938 11.5014C18.6337 17.2607 14.6938 24.1188 14.2264 29.1409ZM5.27829 22.1816L12.4353 26.9394C13.0186 24.3401 14.2585 21.4855 16.0295 18.601L5.27829 22.1816ZM37.8 3.31999L46.293 11.8134C46.3775 11.5514 46.4535 11.3041 46.5213 11.0739C47.8969 6.40797 47.5942 3.29169 46.9566 2.65371C46.3186 2.01728 43.2035 1.71456 38.5391 3.09131C38.3093 3.15952 38.062 3.23549 37.8 3.31999ZM11.5554 45.3944C10.9624 42.6491 13.8721 40.0359 14.2058 39.7471L15.5957 41.3518L14.9008 40.5494L15.5973 41.3506C14.9985 41.8731 13.3519 43.6549 13.631 44.9467L11.5554 45.3944ZM8.40077 42.7107L6.89961 41.2095L11.2302 36.8789L12.7314 38.3801L8.40077 42.7107ZM5.46047 38.6258C5.21163 38.6258 4.96008 38.601 4.70736 38.5463L5.15581 36.4715C6.36124 36.732 8.09767 35.2599 8.75039 34.5068L10.355 35.896C10.093 36.1994 7.91395 38.6258 5.46047 38.6258ZM31.2539 25.8525C29.2527 25.8525 27.3713 25.0731 25.9562 23.6576C23.0349 20.7367 23.0349 15.9839 25.9562 13.063C28.8771 10.1429 33.6302 10.1421 36.5512 13.063C39.4725 15.9839 39.4725 20.7367 36.5512 23.6576C35.1364 25.0727 33.2547 25.8525 31.2539 25.8525ZM31.2539 12.9944C29.8787 12.9944 28.5043 13.5177 27.4574 14.5638C25.3643 16.6572 25.3643 20.0626 27.4574 22.156C28.4717 23.17 29.8198 23.7289 31.2539 23.7289C32.6876 23.7289 34.0357 23.1696 35.05 22.156C37.143 20.0626 37.143 16.6572 35.05 14.5638C34.0039 13.5177 32.6283 12.9944 31.2539 12.9944Z" fill="#2EA1F8"/>
</svg>
