<svg id="Layer_1" data-name="Layer 1" xmlns="http://www.w3.org/2000/svg" xmlns:xlink="http://www.w3.org/1999/xlink" width="274.25" height="199.25" viewBox="0 0 274.25 199.25"><defs><style>.cls-1{fill:none;}.cls-2{fill:#e54245;}.cls-3{fill:#e86e35;}.cls-4{clip-path:url(#clip-path);}.cls-5,.cls-6{fill:#fab965;}.cls-5{opacity:0.91;isolation:isolate;}.cls-7{fill:#595a5c;}.cls-8{fill:#595a5b;}</style><clipPath id="clip-path"><rect class="cls-1" x="206.65" y="3.52" width="20.11" height="17.08"/></clipPath></defs><title>FRIDA</title><path class="cls-2" d="M198.08,6.42l3,14L190,15.76l8.13-9.34Zm29.83,10.27-7.08,25.2L204.08,22.42Z"/><path class="cls-3" d="M214.54,2.89l-10,19-4-16.07ZM238.25,32.1l-15,7.7L229.32,18Z"/><g class="cls-4"><path class="cls-5" d="M226.74,14.74,206.65,20.6l8.67-17.08Z"/></g><path class="cls-6" d="M203.27,22.66l-5,26.32,23.19-1Zm-3.69,27.21,24.59,25.85-3.38-23.78-21.21-2.07Z"/><path class="cls-6" d="M224.17,75.72l15.76,5.08L241.71,73l-17.54,2.68Z"/><path class="cls-2" d="M224.36,39.8l15-2.94,4.25,32.07L224.36,39.8Zm-1.31.83L224.86,74l16.74-3.79Z"/><path class="cls-7" d="M233.23,84.87l8.45-18.7h10l-35.62,77.76L180.51,66.17h10L199,84.87h34.28Zm-17.12,38.68,13.27-30.23H202.86Z"/><path class="cls-6" d="M250.48,75.1l22,48-16.18,17Z"/><path class="cls-7" d="M13.8,74.44v21H39.72v8.44H13.8v36.61H4.5V65.85H40.6V74.3H13.85Zm84.09,66.09H86.63L64.65,109H60.79v31.57H51.5V65.91H62.76c6.63,0,13.76.09,19.71,3.46a20.64,20.64,0,0,1,9.86,17.81c0,10.69-7.13,19.58-17.91,20.88Zm-37.1-39.28h3c9.5,0,19.78-1.78,19.78-13.66S72.49,74.23,63.3,74.23H60.79Zm53.43,39.28h-9.29V65.91h9.29Zm13.15-74.6h15.49c22.85,0,41.84,12.07,41.84,36.91,0,25.42-18.6,37.69-42.14,37.69H127.37V65.93ZM136.66,132h3.27c19,0,35.41-7.12,35.41-28.79s-16.4-28.79-35.4-28.79h-3.26V132ZM53.57,152.1v15.44m-.52-15.44h1v15.44h-1ZM4.93,155.65v3.64h4.5v1.48H4.93v6.37H3.25v-13H9.59v1.48Zm14.62,11.49H17.6l-3.82-5.5h-.67v5.5H11.49v-13h1.95a6.79,6.79,0,0,1,3.42.6,3.6,3.6,0,0,1,1.71,3.1,3.53,3.53,0,0,1-3.11,3.63Zm-6.44-6.83h.5c1.65,0,3.44-.31,3.44-2.38s-1.93-2.33-3.52-2.33h-.42Zm9.29,6.83H20.78v-13H22.4Zm2.28-13h2.69c4,0,7.28,2.1,7.28,6.42s-3.24,6.55-7.32,6.55H24.68Zm1.62,11.49h.56c3.31,0,6.15-1.24,6.15-5s-2.81-5-6.15-5H26.3v10Zm11.8-1.78-1.48,3.26H34.89l6.19-13.52,6.2,13.52H45.49l-1.41-3.26Zm3-6.73-2.31,5.26h4.62Zm25.69,10H65.2V155.65H62.07v-1.48h7.77v1.48H66.76Zm5.73-14.94v8a2.81,2.81,0,0,1,2.42-1.33c2.27,0,2.82,1.54,2.82,3.49v4.81H76.18v-4.61c0-1.41-.18-2.31-1.77-2.31-2,0-2,1.76-2,3.21v3.71H70.86V152.21h1.63Zm8.38,11.16a2.53,2.53,0,0,0,2.4,2.66h0a2.65,2.65,0,0,0,2.41-1.56l1.31.75a4.23,4.23,0,0,1-3.73,2.19,3.91,3.91,0,0,1-4-3.86c0-.12,0-.24,0-.36,0-2.48,1.32-4.34,3.93-4.34S87,160.73,87,163.07v.24H80.87Zm4.59-1.17a2.18,2.18,0,0,0-2.23-2,2.31,2.31,0,0,0-2.29,2h4.52Zm6.69-8H94l3.19,5.53,3.21-5.53h1.83L98,161.49v5.63H96.37v-5.63Zm17.2,9A4.3,4.3,0,1,1,105,158.9h.07a4.22,4.22,0,0,1,4.29,4.15Zm-7,0a2.82,2.82,0,1,0,2.82-2.81,2.82,2.82,0,0,0-2.82,2.81h0Zm9.93-4v4.45c0,1.3.32,2.42,1.86,2.42s1.85-1.14,1.85-2.42v-4.45h1.55v4.63c0,2.2-1,3.71-3.4,3.71s-3.41-1.5-3.41-3.71v-4.63Zm8.88,1.09a2.81,2.81,0,0,1,2.42-1.33c2.27,0,2.82,1.54,2.82,3.49v4.81h-1.55v-4.61c0-1.41-.18-2.31-1.77-2.31-2,0-2,1.76-2,3.21v3.71h-1.55v-8.06H121v1.09Zm15,6.81c0,2.82-.79,4.76-3.93,4.76a3.59,3.59,0,0,1-3.87-3.28,2.29,2.29,0,0,1,0-.37h1.55a2.17,2.17,0,0,0,2.08,2.28h.32c1.92,0,2.31-1.31,2.31-3v-1.53a3.31,3.31,0,0,1-2.73,1.53,4.31,4.31,0,0,1,0-8.56,3.28,3.28,0,0,1,2.82,1.62v-1.41h1.55V167Zm-1.41-3.87a2.59,2.59,0,1,0-5.15-.54,2.44,2.44,0,0,0,0,.54,2.61,2.61,0,1,0,5.1,1.08,2.8,2.8,0,0,0,0-1.08Zm10.17-7.46v3.64h4.5v1.48h-4.5v6.37h-1.62v-13h6.28v1.48Zm7.32,7.71a2.53,2.53,0,0,0,2.4,2.66h0a2.63,2.63,0,0,0,2.41-1.56l1.31.75a4.23,4.23,0,0,1-3.73,2.19,3.91,3.91,0,0,1-4-3.86c0-.12,0-.24,0-.36,0-2.48,1.32-4.34,3.93-4.34s3.77,1.89,3.77,4.23v.24h-6.14Zm4.59-1.17a2.17,2.17,0,0,0-2.23-2,2.31,2.31,0,0,0-2.29,2h4.52Zm4.36-2.09a2.66,2.66,0,0,1,2.14-1.26,2.6,2.6,0,0,1,2.33,1.41,2.91,2.91,0,0,1,2.47-1.41c2.12,0,2.67,1.65,2.67,3.48v4.82h-1.55v-4.57c0-1-.14-2.35-1.5-2.35-1.64,0-1.77,1.72-1.77,3v4h-1.55v-4.23c0-1,0-2.64-1.48-2.64-1.64,0-1.78,1.7-1.78,2.95v4h-1.58v-8.06h1.55v1ZM175,155.39a1.07,1.07,0,1,1,0-.24A1,1,0,0,1,175,155.39Zm-.3,11.73h-1.55v-8.05h1.55Zm4-7a2.81,2.81,0,0,1,2.42-1.33c2.27,0,2.82,1.54,2.82,3.49v4.81h-1.55v-4.61c0-1.41-.2-2.31-1.77-2.31-2,0-2,1.76-2,3.21v3.71h-1.55v-8.06h1.55v1.09Zm9.63-4.78a1.07,1.07,0,0,1-1.18.94,1,1,0,0,1-.94-.94,1.07,1.07,0,1,1,2.12-.24A1,1,0,0,1,188.39,155.39Zm-.29,11.73h-1.55v-8.05h1.55Zm5.71-6.22a1.21,1.21,0,0,0-1-.71.84.84,0,0,0-.84.79c0,.71.93,1,1.87,1.41a2.52,2.52,0,0,1,1.86,2.3,2.7,2.7,0,0,1-2.74,2.66h-.08a3,3,0,0,1-2.81-1.81l1.32-.6a1.62,1.62,0,0,0,1.41,1,1.15,1.15,0,0,0,1.22-1.08v-.06a1,1,0,0,0-.56-.88l-1.51-.8a2.19,2.19,0,0,1-1.54-2,2.34,2.34,0,0,1,2.36-2.33h0a2.38,2.38,0,0,1,2.19,1.4Zm5.14,6.24H197.4v-6.61h-.84v-1.41h.84V156H199v3.08h1.51v1.41H199Zm9.11-11.49v3.64h4.5v1.48h-4.5v6.37h-1.62v-13h6.28v1.48Zm7.86,3.43v4.45c0,1.3.32,2.42,1.85,2.42s1.86-1.14,1.86-2.42v-4.45h1.55v4.63c0,2.2-1,3.71-3.41,3.71s-3.33-1.51-3.33-3.71v-4.63h1.48Zm8.88,1.09a2.81,2.81,0,0,1,2.42-1.33c2.27,0,2.82,1.54,2.82,3.49v4.81h-1.52v-4.61c0-1.41-.2-2.31-1.78-2.31-2,0-2,1.76-2,3.21v3.71h-1.55v-8.06h1.55v1.09Zm13.45,5.7a3.34,3.34,0,0,1-2.74,1.53,4.31,4.31,0,0,1,0-8.56,3.31,3.31,0,0,1,2.82,1.58V152.2h1.45v14.92h-1.55v-1.25Zm.08-2.82a2.59,2.59,0,0,0-5.17-.38,2.41,2.41,0,0,0,0,.38,2.61,2.61,0,1,0,5.21.06ZM4.4,186.65v2.6H7.61v1.06H4.4v4.53H3.25v-9.23H7.73v1H4.4Zm5.69,8.18H9V184.2h1.1Zm2.23-2.68a1.79,1.79,0,0,0,1.7,1.9h0a1.9,1.9,0,0,0,1.72-1.12l.93.52A3,3,0,0,1,14,195a2.83,2.83,0,0,1-2.82-2.81,1.48,1.48,0,0,1,0-.21,2.82,2.82,0,0,1,2.53-3.07H14a2.68,2.68,0,0,1,2.72,2.63,3.11,3.11,0,0,1,0,.43v.16Zm3.26-.83a1.53,1.53,0,0,0-1.57-1.4,1.64,1.64,0,0,0-1.64,1.4h3.21Zm1.62-2.26h1.3l1.41,1.84,1.45-1.84h1.32l-2.11,2.62L23,194.79H21.75l-1.89-2.33L18,194.79H16.71l2.56-3.11Zm8-2.58a.77.77,0,0,1-1.53,0,.76.76,0,0,1,.76-.76.77.77,0,0,1,.77.76ZM25,194.84H23.86v-5.78H25v5.78Zm1.68-10.64h1.1v5.86a2.33,2.33,0,0,1,2-1.13,3.07,3.07,0,0,1,0,6.1,2.4,2.4,0,0,1-1.95-1.09v.89H26.65ZM31.41,192a1.89,1.89,0,0,0-1.71-2.05h-.15a2.08,2.08,0,1,0,1.85,2.29C31.4,192.13,31.41,192.05,31.41,192Zm3.69-5.49a.76.76,0,1,1-.76-.76.76.76,0,0,1,.76.76Zm-.21,8.36h-1.1v-5.78h1.1v5.78Zm2.91,0H36.7V184.2h1.1Zm3.13-8.35a.76.76,0,1,1-.76-.76.76.76,0,0,1,.76.76Zm-.22,8.36H39.62v-5.78h1.09v5.78Zm3,0H42.67v-4.7H42v-1.07h.63v-2.2h1.1v2.2h1.08v1H43.74v4.75Z"/><path class="cls-8" d="M44.5,189.06h1.28l1.93,3.63,1.82-3.63h1.24l-4.65,9H44.87l2.25-4.22Zm16.25,5.77H59.34l-2.72-3.91h-.46v3.91H55v-9.24h1.4a5,5,0,0,1,2.44.44,2.56,2.56,0,0,1,1.21,2.21,2.51,2.51,0,0,1-2.23,2.59ZM56.16,190h.37c1.18,0,2.45-.23,2.45-1.69s-1.41-1.65-2.51-1.65h-.31Zm6,2.19a1.79,1.79,0,0,0,1.69,1.9h0a1.87,1.87,0,0,0,1.71-1.12l1,.52A3,3,0,0,1,64,195a2.83,2.83,0,0,1-2.83-2.81,1.48,1.48,0,0,1,0-.21,2.82,2.82,0,0,1,2.54-3.07H64a2.66,2.66,0,0,1,2.68,2.66c0,.13,0,.27,0,.4v.16Zm3.26-.83a1.54,1.54,0,0,0-1.58-1.4,1.62,1.62,0,0,0-1.63,1.4Zm4.35-.86a.83.83,0,0,0-.73-.5.6.6,0,0,0-.61.56,1.76,1.76,0,0,0,1.34,1,1.8,1.8,0,0,1,1.33,1.63,1.93,1.93,0,0,1-2,1.9h0a2.11,2.11,0,0,1-2-1.28l.94-.43a1.15,1.15,0,0,0,1,.73.83.83,0,0,0,.88-.76v-.05a.7.7,0,0,0-.41-.61l-1.08-.58a1.56,1.56,0,0,1-1.1-1.41A1.66,1.66,0,0,1,69.13,189h0a1.7,1.7,0,0,1,1.56,1ZM77.87,192a3.07,3.07,0,1,1-3.08-3.06h0a3,3,0,0,1,3.07,3Zm-5,0a2,2,0,1,0,2-2,2,2,0,0,0-2,2v0Zm7-2.93v3.16a1.41,1.41,0,0,0,2.65,1,1.47,1.47,0,0,0,0-1v-3.16h1.09v3.29a2.43,2.43,0,1,1-4.85.37,2.29,2.29,0,0,1,0-.37v-3.29h1.11Zm6.45,1a1.65,1.65,0,0,1,1.56-1.1,1.8,1.8,0,0,1,.9.28l-.51,1a1,1,0,0,0-.67-.24c-1.18,0-1.34,1.1-1.34,2v2.82h-1.1v-5.76h1.16v1Zm7.28.7A2.11,2.11,0,0,0,92,190,2,2,0,0,0,90,192a2,2,0,0,0,1.86,2H92a2,2,0,0,0,1.56-.76v1.41A3.2,3.2,0,0,1,92,195a3,3,0,0,1-3.07-3V192a3,3,0,0,1,3-3.08h.12a3.12,3.12,0,0,1,1.52.38v1.41Zm1.84,1.42a1.8,1.8,0,0,0,1.7,1.9h0a1.89,1.89,0,0,0,1.72-1.12l.93.52A3,3,0,0,1,97.16,195a2.81,2.81,0,0,1-2.82-2.81V192a2.82,2.82,0,0,1,2.54-3.07h.28a2.67,2.67,0,0,1,2.71,2.63,2.07,2.07,0,0,1,0,.43v.16Zm3.27-.83a1.55,1.55,0,0,0-1.58-1.4,1.62,1.62,0,0,0-1.63,1.4Zm4.35-.86a.83.83,0,0,0-.73-.5.58.58,0,0,0-.61.56,1.74,1.74,0,0,0,1.34,1,1.79,1.79,0,0,1,1.32,1.63,1.92,1.92,0,0,1-2,1.9h0a2.12,2.12,0,0,1-2-1.28l1-.43a1.14,1.14,0,0,0,1,.73.82.82,0,0,0,.87-.76v-.05a.66.66,0,0,0-.41-.61L101.8,192a1.55,1.55,0,0,1-1.09-1.41A1.67,1.67,0,0,1,102.4,189h0a1.72,1.72,0,0,1,1.56,1Zm7.19,4.37h-1.17v-9.24h1.17Zm2.69-5a2,2,0,0,1,1.73-.94c1.62,0,2,1.1,2,2.49v3.42h-1.07v-3.28c0-1-.14-1.64-1.27-1.64-1.41,0-1.41,1.25-1.41,2.29v2.63h-1.11v-5.78h1.1v.81Zm9.52.86a2.1,2.1,0,0,0-1.65-.77,2,2,0,0,0-1.91,2,1.94,1.94,0,0,0,1.85,2h.13a2,2,0,0,0,1.56-.76v1.41a3.17,3.17,0,0,1-1.57.38,3,3,0,0,1-3.07-3V192a3.06,3.06,0,0,1,3-3.08h.12a3.12,3.12,0,0,1,1.52.38v1.41Zm2.34,4.1h-1.1V184.2h1.1Zm2.61-5.77v3.16a1.42,1.42,0,0,0,.85,1.81,1.41,1.41,0,0,0,1.8-.84,1.47,1.47,0,0,0,0-1v-3.16h1.1v3.29a2.44,2.44,0,1,1-4.86.37,2.29,2.29,0,0,1,0-.37v-3.29h1.11Zm7.52,1.4a.83.83,0,0,0-.74-.56.59.59,0,0,0-.61.56,1.72,1.72,0,0,0,1.34,1,1.81,1.81,0,0,1,1.32,1.64,1.93,1.93,0,0,1-2,1.9h0a2.11,2.11,0,0,1-2-1.28l.94-.44a1.14,1.14,0,0,0,1,.73.82.82,0,0,0,.87-.76v0a.68.68,0,0,0-.4-.62l-1.09-.58a1.57,1.57,0,0,1-1.1-1.41,1.68,1.68,0,0,1,1.69-1.66h0a1.72,1.72,0,0,1,1.57,1Zm4-4a.76.76,0,1,1-.76-.76A.76.76,0,0,1,138.89,186.48Zm-.21,8.36h-1.1v-5.78h1.1v5.78Zm3.71-2.16,1.65-3.62h1.24L142.39,195l-2.81-5.92h1.24Zm5.06-6.2a.76.76,0,1,1-.76-.76A.76.76,0,0,1,147.45,186.48Zm-.21,8.36h-1.1v-5.78h1.1v5.78Zm3,0h-1.09v-4.7h-.61v-1.07h.61v-2.2h1.09v2.2h1.09v1h-1.09v4.75Z"/><path class="cls-8" d="M151.08,189.06h1.28l1.93,3.63,1.8-3.63h1.24l-4.64,9h-1.26l2.26-4.22Zm10.35-3.47h1.91c2.82,0,5.19,1.5,5.19,4.58s-2.31,4.67-5.23,4.67h-1.87v-9.25Zm1.15,8.18H163c2.35,0,4.39-.88,4.39-3.56s-2-3.56-4.39-3.56h-.41v7.12Zm8.52-7.29a.76.76,0,1,1-.76-.76A.76.76,0,0,1,171.1,186.48Zm-.21,8.36h-1.1v-5.78h1.1v5.78Zm3.72-2.16,1.66-3.58h1.24L174.62,195l-2.81-5.93H173Zm4.15-.53a1.8,1.8,0,0,0,1.7,1.9h0a1.88,1.88,0,0,0,1.72-1.12l.93.52a3,3,0,0,1-2.66,1.57,2.81,2.81,0,0,1-2.82-2.81V192a2.82,2.82,0,0,1,2.54-3.07h.28a2.67,2.67,0,0,1,2.71,2.63,2.07,2.07,0,0,1,0,.43v.16h-4.41Zm3.27-.83a1.55,1.55,0,0,0-1.58-1.4,1.63,1.63,0,0,0-1.63,1.4H182Zm3.22-1.29a1.66,1.66,0,0,1,1.56-1.1,1.83,1.83,0,0,1,.91.28l-.51,1a1,1,0,0,0-.68-.24c-1.18,0-1.33,1.1-1.33,2v2.82h-1.1v-5.76h1.1V190Zm5.42.43a.83.83,0,0,0-.73-.5.6.6,0,0,0-.61.56,1.76,1.76,0,0,0,1.34,1,1.8,1.8,0,0,1,1.33,1.63,1.93,1.93,0,0,1-2,1.9h0a2.11,2.11,0,0,1-2-1.28l.94-.43a1.15,1.15,0,0,0,1,.73.83.83,0,0,0,.88-.76v-.05a.7.7,0,0,0-.41-.61l-1.09-.58a1.58,1.58,0,0,1-1.09-1.41A1.66,1.66,0,0,1,190,189h0a1.7,1.7,0,0,1,1.56,1Zm4-4a.76.76,0,1,1-.76-.76A.76.76,0,0,1,194.63,186.48Zm-.21,8.36h-1.1v-5.78h1.1v5.78Zm3,0h-1.09v-4.7h-.61v-1.07h.61v-2.2h1.09v2.2h1.09v1h-1.09v4.75Z"/><path class="cls-8" d="M198.2,189.06h1.29l1.92,3.63,1.76-3.63h1.24l-4.64,9h-1.26l2.26-4.22ZM210,192.52,209,194.84h-1.24l4.41-9.63,4.41,9.63H215.3l-1.06-2.32Zm2.12-4.79-1.64,3.73h3.28Zm9.34,3a2.11,2.11,0,0,0-1.65-.77,2,2,0,0,0-1.91,2,1.94,1.94,0,0,0,1.85,2h.13a2.08,2.08,0,0,0,1.58-.72v1.41a3.23,3.23,0,0,1-1.58.38,3,3,0,0,1-3.07-3v-.05a3.06,3.06,0,0,1,3-3.09H220a3.2,3.2,0,0,1,1.52.38v1.38Zm2.38,4.1h-1.1v-4.7h-.61v-1.07h.61v-2.2h1.1v2.2h1.08v1h-1.08v4.75Zm3.25-8.35a.76.76,0,1,1-.76-.76A.76.76,0,0,1,227.11,186.48Zm-.21,8.36h-1.1v-5.78h1.1v5.78Zm7.36-2.85a3.07,3.07,0,1,1-3.08-3.06h0a3,3,0,0,1,3.07,3Zm-5,0a2,2,0,1,0,2-2A2,2,0,0,0,229.23,192Zm7.13-2.12a2,2,0,0,1,1.73-.94c1.62,0,2,1.1,2,2.49v3.42H239v-3.28c0-1-.14-1.64-1.27-1.64-1.41,0-1.41,1.25-1.41,2.29v2.63h-1.09v-5.78h1.09v.77Zm-233-14H240.08M3.35,175.44H240.08v.9H3.35Z"/></svg>